<svg xmlns="http://www.w3.org/2000/svg" xml:space="preserve" x="0" y="0" version="1.1" viewBox="0 0 24 24">
  <style>
    .st0{fill:#fb64ba}
  </style>
  <path d="m15.5 8.3-3.2-.5c-.5-.1-.9-.7-1.3-1.1-.3 3.2-.5 6.4-.8 9.6h4.3l-.8-4.1c-.1-.4.2-.8.6-.9l1.3-.3c-.4-.8-.4-1.8-.1-2.7zm-7.7 2.8-.5 5.2h1.5c.1-1.5.4-5.1.7-7.9-1 .6-1.6 1.6-1.7 2.7z" class="st0"/>
  <path d="M12.5.3C6 .3.7 5.6.7 12.1c0 2.6.9 5.1 2.5 7.2L.9 22.7c-.3.5 0 1.2.6 1.2h11c6.5 0 11.8-5.3 11.8-11.8S19 .3 12.5.3zm5.7 11.8-2.8.6.9 4.3c.1.5-.3.9-.7.9h-9c-.4 0-.8-.4-.7-.8l.6-6c.2-2 1.5-3.6 3.3-4.3C9.7 5.7 9.7 5 9.7 5c.1-.6.8-.9 1.3-.5l1.8 1.8.4.1.5-1.6c.1-.4.6-.6.9-.5.4.1.6.6.5.9l-.4 1.3L18 7c1.2.2 2.2 1.3 2.2 2.5 0 1.3-.8 2.4-2 2.6z" class="st0"/>
  <path d="m17.8 8.6-.8-.1c-.4.7-.4 1.6.1 2.3l.8-.2c.5-.1.8-.5.8-1s-.4-.9-.9-1z" class="st0"/>
</svg>
