<?xml version="1.0" encoding="utf-8"?>
<!-- Generator: Adobe Illustrator 28.1.0, SVG Export Plug-In . SVG Version: 6.00 Build 0)  -->
<svg version="1.1" id="Layer_1" xmlns="http://www.w3.org/2000/svg" xmlns:xlink="http://www.w3.org/1999/xlink" x="0px" y="0px"
	 viewBox="0 0 800 800" style="enable-background:new 0 0 800 800;" xml:space="preserve">
<style type="text/css">
	.st0{fill:#FB64BA;}
	.st1{fill:#FFF06F;}
	.st2{fill:#80C6FF;}
	.st3{fill:#FFFFFF;}
	.st4{fill:#CDDABB;}
	.st5{fill:#CD9CDC;}
	.st6{fill:none;}
	.st7{fill:#FFAF9A;}
	.st8{fill:#262626;}
	.st9{font-family:'PTMono-Bold';}
	.st10{font-size:30px;}
</style>
<circle class="st0" cx="245" cy="533.6" r="245"/>
<circle class="st1" cx="555" cy="533.6" r="245"/>
<circle class="st2" cx="399.3" cy="266.4" r="245"/>
<path class="st3" d="M623.5,310.9c0,0-156.9-21.4-223.5,33c-67-54.7-221.9-33-221.9-33S231.8,465.2,313,495.7
	c-13.2,84.6,86.2,193.8,87,193.8c0.8,0,100.4-109.6,86.9-194.3C567.5,464.3,623.5,310.9,623.5,310.9z"/>
<path class="st4" d="M400,343.9c22.3,18.2,41.8,40.8,57.1,67.2c15.5,26.8,25.3,55.2,29.8,84c80.6-30.9,140.7-103.2,154.4-190.9
	C558.7,273.2,466.6,289.5,400,343.9z"/>
<path class="st5" d="M313,495.7c4.5-29,14.4-57.7,29.9-84.6c15.3-26.5,34.7-49,57.1-67.2c-67-54.7-159.8-71-242.7-39.1
	C171.1,392.8,231.8,465.2,313,495.7z"/>
<path class="st6" d="M400,343.9c-22.3,18.2-41.8,40.8-57.1,67.2c-15.6,26.9-25.4,55.6-29.9,84.6c26.8,10.1,55.9,15.6,86.2,15.6
	c30.9,0,60.5-5.7,87.7-16.2c-4.6-28.8-14.4-57.3-29.8-84C441.8,384.7,422.3,362.2,400,343.9z"/>
<path class="st7" d="M486.9,495.2c-27.2,10.4-56.8,16.2-87.7,16.2c-30.3,0-59.4-5.5-86.2-15.6c-13.2,84.6,18.9,172,87,227.6
	C468.3,667.6,500.4,579.9,486.9,495.2z"/>
<text transform="matrix(1 0 0 1 323.4062 224.5298)" class="st8 st9 st10">Usability</text>
<text transform="matrix(1 0 0 1 48.884 566.4736)" class="st8 st9 st10">Beauty</text>
<text transform="matrix(1 0 0 1 513.5787 572.623)" class="st8 st9 st10">Sustainablilty</text>
</svg>
