<?xml version="1.0" encoding="utf-8"?>
<!-- Generator: Adobe Illustrator 28.1.0, SVG Export Plug-In . SVG Version: 6.00 Build 0)  -->
<svg version="1.1" id="Layer_1" xmlns="http://www.w3.org/2000/svg" xmlns:xlink="http://www.w3.org/1999/xlink" x="0px" y="0px"
	 viewBox="0 0 800 800" style="enable-background:new 0 0 800 800;" xml:space="preserve">
<style type="text/css">
	.st0{fill:#FB64BA;}
	.st1{fill:#FFF06F;}
	.st2{fill:#80C6FF;}
	.st3{fill:#262626;}
	.st4{fill:#CDDABB;}
	.st5{fill:#CD9CDC;}
	.st6{fill:#FFAF9A;}
	.st7{font-family:'PTMono-Bold';}
	.st8{font-size:29.5609px;}
</style>
<circle class="st0" cx="246.4" cy="526.1" r="241.4"/>
<circle class="st1" cx="551.9" cy="526.1" r="241.4"/>
<circle class="st2" cx="398.4" cy="262.8" r="241.4"/>
<path class="st3" d="M619.3,306.7c0,0-154.6-21.1-220.2,32.5c-66-53.9-218.7-32.5-218.7-32.5s52.9,152,132.9,182.1
	c-13,83.4,85,190.9,85.7,190.9c0.8,0,98.9-108,85.6-191.5C564.2,457.8,619.3,306.7,619.3,306.7z"/>
<path class="st4" d="M399.1,339.2c22,18,41.2,40.2,56.2,66.2c15.2,26.4,24.9,54.4,29.4,82.8c79.4-30.5,138.7-101.7,152.1-188.1
	C555.5,269.5,464.8,285.6,399.1,339.2z"/>
<path class="st5" d="M313.4,488.8c4.5-28.6,14.2-56.8,29.5-83.3c15-26.1,34.2-48.3,56.2-66.2c-66-53.9-157.5-69.9-239.2-38.5
	C173.6,387.4,233.4,458.7,313.4,488.8z"/>
<path class="st6" d="M484.8,488.2c-26.8,10.3-56,15.9-86.4,15.9c-29.9,0-58.5-5.5-85-15.4c-13,83.4,18.6,169.5,85.7,224.2
	C466.4,658.1,498,571.8,484.8,488.2z"/>
<text transform="matrix(1 0 0 1 325.1499 227.6167)" class="st3 st7 st8">Usability</text>
<text transform="matrix(1 0 0 1 69.9194 564.5557)" class="st3 st7 st8">Beauty</text>
<text transform="matrix(1 0 0 1 511.0615 564.5557)" class="st3 st7 st8">Sustainablilty</text>
</svg>
