<?xml version="1.0" encoding="utf-8"?>
<!-- Generator: Adobe Illustrator 28.1.0, SVG Export Plug-In . SVG Version: 6.00 Build 0)  -->
<svg version="1.1" id="Layer_1" xmlns="http://www.w3.org/2000/svg" xmlns:xlink="http://www.w3.org/1999/xlink" x="0px" y="0px"
	 viewBox="0 0 24 24" style="enable-background:new 0 0 24 24;" xml:space="preserve">
<style type="text/css">
	.st0{fill:#FF611A;}
</style>
<g>
	<path class="st0" d="M15.5,8.3c0,0-3.2-0.5-3.2-0.5c-0.5-0.1-0.9-0.7-1.3-1.1c-0.3,3.2-0.5,6.4-0.8,9.6h4.3c0,0-0.8-4.1-0.8-4.1
		c-0.1-0.4,0.2-0.8,0.6-0.9l1.3-0.3C15.2,10.2,15.2,9.2,15.5,8.3z"/>
	<path class="st0" d="M7.8,11.1l-0.5,5.2h1.5c0.1-1.5,0.4-5.1,0.7-7.9C8.5,9,7.9,10,7.8,11.1z"/>
	<path class="st0" d="M12.5,0.3C6,0.3,0.7,5.6,0.7,12.1c0,2.6,0.9,5.1,2.5,7.2l-2.3,3.4c-0.3,0.5,0,1.2,0.6,1.2h11
		c6.5,0,11.8-5.3,11.8-11.8S19,0.3,12.5,0.3z M18.2,12.1l-2.8,0.6c0,0,0.9,4.3,0.9,4.3c0.1,0.5-0.3,0.9-0.7,0.9h-6c0,0-3,0-3,0
		c-0.4,0-0.8-0.4-0.7-0.8l0.6-6c0.2-2,1.5-3.6,3.3-4.3C9.7,5.7,9.7,5,9.7,5c0.1-0.6,0.8-0.9,1.3-0.5l1.8,1.8l0.4,0.1l0.5-1.6
		c0.1-0.4,0.6-0.6,0.9-0.5c0.4,0.1,0.6,0.6,0.5,0.9l-0.4,1.3l3.3,0.5c1.2,0.2,2.2,1.3,2.2,2.5C20.2,10.8,19.4,11.9,18.2,12.1z"/>
	<path class="st0" d="M17.8,8.6l-0.8-0.1c-0.4,0.7-0.4,1.6,0.1,2.3l0.8-0.2c0.5-0.1,0.8-0.5,0.8-1C18.7,9.1,18.3,8.7,17.8,8.6z"/>
</g>
</svg>
